# xmcd
#
# Track frame offsets:
#	150
#	3345
#	17819
#	46205
#	62117
#	87435
#	114007
#	139921
#	173044
#	184934
#	203142
#	205491
#	241910
#	280018
#	295444
#
# Disc length: 4197 seconds
#
# Revision: 1
# Processed by: cddbd v1.5.2PL0 Copyright (c) Steve Scherf et al.
# Submitted via: audiograbber 1.83.01
#
DISCID=d510630f
DTITLE=Grateful Dead - 71-11-15 Austin Municipal Auditorium, Austin TX
DYEAR=1900
DGENRE=
TTITLE0=Stage Banter
TTITLE1=Me and My Uncle
TTITLE2=Ramble On Rose
TTITLE3=Mexicali Blues
TTITLE4=Brokedown Palace
TTITLE5=Me and Bobby McGee
TTITLE6=Cumberland Blues
TTITLE7=Suagr Magnolia
TTITLE8=You Win Again
TTITLE9=Not Fade Away
TTITLE10=China Cat Sunflower Jam
TTITLE11=Jam
TTITLE12=GDTRFB
TTITLE13=Not Fade Away
TTITLE14=Johnny B Goode
EXTD=
EXTT0=
EXTT1=
EXTT2=
EXTT3=
EXTT4=
EXTT5=
EXTT6=
EXTT7=
EXTT8=
EXTT9=
EXTT10=
EXTT11=
EXTT12=
EXTT13=
EXTT14=
PLAYORDER=
